<svg xmlns="http://www.w3.org/2000/svg" width="60" height="101" viewBox="0 0 66.8 112.6" fill="#fff"><path d="M61.9 59.4c-1.1-1.7-1.6-3.4-1.5-5.1l.3-2.1 3.4-18.7 1.7-8.6.3-1.7v-.8c.3-2.1.5-4.1.5-6 0-5.9-1.6-10.2-4.8-12.7C58.7 1.3 54.4 0 49 0c-7.5 0-14.3 3.4-20.3 10.2l1.7-8.7H10.7L0 61.9l21.5-.4 6.1-33.4c1-4.6 2.2-7.5 3.6-8.7 1.7-1.6 3.9-2.4 6.6-2.4 4.1 0 6.1 2.1 6.1 6.4l-.1 1.9-.1 1.7-.7 4.5L40.2 46l-.8 3.4-.2 3.3c-.1 2.3.5 4.3 1.6 5.9 1.2 1.5 3 2.6 5.3 3.3-3.6 1-6.2 2.5-8 4.5-1.8 2-3 4.9-3.8 8.8l-4.6 23.3c-.8 4.2-2 7.2-3.5 9.1-1.5 1.9-4 3.5-7.6 4.7l10.8.2c6.3.1 11.1-.7 14.7-2.5 3.5-1.8 5.8-5.4 6.7-10.9l4.3-22.2c1.1-4.6 2.2-7.9 3.3-9.9 1.5-2.3 4.2-4 8.1-5-2-.5-3.6-1.5-4.6-2.6"/></svg>